<svg id="mermaid-1605115245147" width="100%" xmlns="http://www.w3.org/2000/svg" height="650" style="max-width: 2259.2384643554688px;" viewBox="-18.75  0 1290.993408203125 650"><style>#mermaid-1605115245147{font-family:"trebuchet ms",verdana,arial;font-size:16px;fill:#333;}#mermaid-1605115245147 .error-icon{fill:#552222;}#mermaid-1605115245147 .error-text{fill:#552222;stroke:#552222;}#mermaid-1605115245147 .edge-thickness-normal{stroke-width:2px;}#mermaid-1605115245147 .edge-thickness-thick{stroke-width:3.5px;}#mermaid-1605115245147 .edge-pattern-solid{stroke-dasharray:0;}#mermaid-1605115245147 .edge-pattern-dashed{stroke-dasharray:3;}#mermaid-1605115245147 .edge-pattern-dotted{stroke-dasharray:2;}#mermaid-1605115245147 .marker{fill:#333333;}#mermaid-1605115245147 .marker.cross{stroke:#333333;}#mermaid-1605115245147 svg{font-family:"trebuchet ms",verdana,arial;font-size:16px;}#mermaid-1605115245147 g.stateGroup text{fill:#9370DB;stroke:none;font-size:10px;}#mermaid-1605115245147 g.stateGroup text{fill:#333;stroke:none;font-size:10px;}#mermaid-1605115245147 g.stateGroup .state-title{font-weight:bolder;fill:black;}#mermaid-1605115245147 g.stateGroup rect{fill:#ECECFF;stroke:#9370DB;}#mermaid-1605115245147 g.stateGroup line{stroke:#333333;stroke-width:1;}#mermaid-1605115245147 .transition{stroke:#333333;stroke-width:1;fill:none;}#mermaid-1605115245147 .stateGroup .composit{fill:white;border-bottom:1px;}#mermaid-1605115245147 .stateGroup .alt-composit{fill:#e0e0e0;border-bottom:1px;}#mermaid-1605115245147 .state-note{stroke:#aaaa33;fill:#fff5ad;}#mermaid-1605115245147 .state-note text{fill:black;stroke:none;font-size:10px;}#mermaid-1605115245147 .stateLabel .box{stroke:none;stroke-width:0;fill:#ECECFF;opacity:0.5;}#mermaid-1605115245147 .edgeLabel .label rect{fill:hsl(80,100%,96.2745098039%);opacity:0.5;}#mermaid-1605115245147 .edgeLabel .label text{fill:rgb(9.5000000001,9.5000000001,9.5000000001);}#mermaid-1605115245147 .label div .edgeLabel{color:rgb(9.5000000001,9.5000000001,9.5000000001);}#mermaid-1605115245147 .stateLabel text{fill:black;font-size:10px;font-weight:bold;}#mermaid-1605115245147 .node circle.state-start{fill:#333333;stroke:black;}#mermaid-1605115245147 .node circle.state-end{fill:hsl(240,60%,86.2745098039%);stroke:white;stroke-width:1.5;}#mermaid-1605115245147 .end-state-inner{fill:white;stroke-width:1.5;}#mermaid-1605115245147 .node rect{fill:#ECECFF;stroke:#9370DB;stroke-width:1px;}#mermaid-1605115245147 #statediagram-barbEnd{fill:#333333;}#mermaid-1605115245147 .statediagram-cluster rect{fill:#ECECFF;stroke:#9370DB;stroke-width:1px;}#mermaid-1605115245147 .cluster-label,#mermaid-1605115245147 .nodeLabel{color:#333;}#mermaid-1605115245147 .statediagram-cluster rect.outer{rx:5px;ry:5px;}#mermaid-1605115245147 .statediagram-state .divider{stroke:#9370DB;}#mermaid-1605115245147 .statediagram-state .title-state{rx:5px;ry:5px;}#mermaid-1605115245147 .statediagram-cluster.statediagram-cluster .inner{fill:white;}#mermaid-1605115245147 .statediagram-cluster.statediagram-cluster-alt .inner{fill:#e0e0e0;}#mermaid-1605115245147 .statediagram-cluster .inner{rx:0;ry:0;}#mermaid-1605115245147 .statediagram-state rect.basic{rx:5px;ry:5px;}#mermaid-1605115245147 .statediagram-state rect.divider{stroke-dasharray:10,10;fill:#efefef;}#mermaid-1605115245147 .note-edge{stroke-dasharray:5;}#mermaid-1605115245147 .statediagram-note rect{fill:#fff5ad;stroke:#aaaa33;stroke-width:1px;rx:0;ry:0;}#mermaid-1605115245147 .statediagram-note rect{fill:#fff5ad;stroke:#aaaa33;stroke-width:1px;rx:0;ry:0;}#mermaid-1605115245147 .statediagram-note text{fill:black;}#mermaid-1605115245147 .statediagram-note .nodeLabel{color:black;}#mermaid-1605115245147 #dependencyStart,#mermaid-1605115245147 #dependencyEnd{fill:#333333;stroke:#333333;stroke-width:1;}#mermaid-1605115245147:root{--mermaid-font-family:"trebuchet ms",verdana,arial;}#mermaid-1605115245147 state{fill:apa;}</style><g></g><defs><marker id="dependencyEnd" refX="19" refY="7" markerWidth="20" markerHeight="28" orient="auto"><path d="M 19,7 L9,13 L14,7 L9,1 Z"></path></marker></defs><g id="Null" class="stateGroup" transform="translate(161.66499999999996,0 )" data-x-shift="161.66499999999996"><rect x="8" y="8" width="35" height="27" rx="5"></rect><text x="16" y="26" font-size="24" class="state-title">Null</text></g><g id="Precommitted" class="stateGroup" transform="translate(137.16499999999996,79 )" data-x-shift="137.16499999999996"><rect x="8" y="8" width="84" height="27" rx="5"></rect><text x="16" y="26" font-size="24" class="state-title">Precommitted</text></g><g id="Committed" class="stateGroup" transform="translate(371.58,158 )" data-x-shift="371.58"><rect x="8" y="8" width="68" height="27" rx="5"></rect><text x="16" y="26" font-size="24" class="state-title">Committed</text></g><g id="Deleted" class="stateGroup" transform="translate(412.0799999999999,607 )" data-x-shift="412.0799999999999"><rect x="8" y="8" width="53" height="27" rx="5"></rect><text x="16" y="26" font-size="24" class="state-title">Deleted</text></g><g id="Active" class="stateGroup" transform="translate(891.7799999999999,239.5 )" data-x-shift="891.7799999999999"><rect x="8" y="8" width="47" height="27" rx="5"></rect><text x="16" y="26" font-size="24" class="state-title">Active</text></g><g id="Faulty" class="stateGroup" transform="translate(547.3149999999999,353 )" data-x-shift="547.3149999999999"><rect x="8" y="8" width="46" height="27" rx="5"></rect><text x="16" y="26" font-size="24" class="state-title">Faulty</text></g><g id="Terminated" class="stateGroup" transform="translate(658.8849999999999,528 )" data-x-shift="658.8849999999999"><rect x="8" y="8" width="70" height="27" rx="5"></rect><text x="16" y="26" font-size="24" class="state-title">Terminated</text></g><g id="Recovering" class="stateGroup" transform="translate(809.66,448 )" data-x-shift="809.66"><rect x="8" y="8" width="72" height="28" rx="5"></rect><text x="16" y="26" font-size="24" class="state-title">Recovering</text></g><path d="M187.16499999999996,43L187.16499999999996,46C187.16499999999996,49,187.16499999999996,55,187.16499999999996,61C187.16499999999996,67,187.16499999999996,73,187.16499999999996,76L187.16499999999996,79" id="edge0" class="transition" marker-end="url(#dependencyEnd)"></path><g class="stateLabel"><rect class="box" x="137.15718749999996" y="48" width="100.015625" height="19"></rect><text text-anchor="middle" x="187.16499999999996" y="61">PreCommitSectors</text><text text-anchor="middle" x="187.16499999999996" y="72"></text></g><path d="M237.16499999999996,109.22292030121679L266.56749999999994,114.35243358434734C295.96999999999997,119.48194686747786,354.7749999999999,129.74097343373893,384.1775,137.87048671686946C413.58,146,413.58,152,413.58,155L413.58,158" id="edge1" class="transition" marker-end="url(#dependencyEnd)"></path><g class="stateLabel"><rect class="box" x="292.73077582855825" y="113.15041128807962" width="83.015625" height="19.015625"></rect><text text-anchor="middle" x="334.23858832855825" y="126.15822378807962">CommitSectors</text><text text-anchor="middle" x="334.23858832855825" y="137.17384878807962"></text></g><path d="M137.16499999999996,116.3742916850862L124.76249999999997,120.31190973757184C112.35999999999997,124.24952779005747,87.55499999999999,132.12476389502874,75.15249999999999,142.6457152808477C62.75,153.16666666666666,62.75,166.33333333333334,62.75,179.5C62.75,192.66666666666666,62.75,205.83333333333334,62.75,219.41666666666666C62.75,233,62.75,247,62.75,263.6666666666667C62.75,280.3333333333333,62.75,299.6666666666667,62.75,318.5833333333333C62.75,337.5,62.75,356,62.75,373.1666666666667C62.75,390.3333333333333,62.75,406.1666666666667,62.75,422.0833333333333C62.75,438,62.75,454,62.75,468.6666666666667C62.75,483.3333333333333,62.75,496.6666666666667,62.75,509.9166666666667C62.75,523.1666666666666,62.75,536.3333333333334,62.75,549.5C62.75,562.6666666666666,62.75,575.8333333333334,120.97166666666665,588.4082666805617C179.1933333333333,600.9832000277901,295.6366666666666,612.9664000555802,353.8583333333333,618.9580000694751L412.0799999999999,624.9496000833702" id="edge2" class="transition" marker-end="url(#dependencyEnd)"></path><g class="stateLabel"><rect class="box" x="-10.75" y="487.5419518823833" width="147" height="20.015625"></rect><text text-anchor="middle" x="62.75" y="501.0497643823833">CronPreCommitExpiry (PCD)</text><text text-anchor="middle" x="62.75" y="513.0653893823833"></text></g><path d="M455.58,182.75485579752797L533.53,188.7957131646066C611.4799999999999,194.8365705316853,767.38,206.91828526584266,845.3299999999999,216.37580929958798C923.2799999999999,225.83333333333334,923.2799999999999,232.66666666666666,923.2799999999999,236.08333333333334L923.2799999999999,239.5" id="edge3" class="transition" marker-end="url(#dependencyEnd)"></path><g class="stateLabel"><rect class="box" x="640.141546144723" y="188.66158060666385" width="119.015625" height="19.015625"></rect><text text-anchor="middle" x="699.649358644723" y="201.66939310666385">SubmittedWindowPoSt</text><text text-anchor="middle" x="699.649358644723" y="212.68501810666385"></text></g><path d="M386.4791139240506,201L382.6975949367088,204C378.91607594936704,207,371.3530379746835,213,367.57151898734173,223C363.78999999999996,233,363.78999999999996,247,363.78999999999996,263.6666666666667C363.78999999999996,280.3333333333333,363.78999999999996,299.6666666666667,394.3775,317.2466592860195C424.965,334.82665190537233,486.13999999999993,350.6533038107447,516.7275,358.56662976343085L547.3149999999999,366.479955716117" id="edge4" class="transition" marker-end="url(#dependencyEnd)"></path><g class="stateLabel"><rect class="box" x="330.1189879175673" y="302.5663185805267" width="126.015625" height="41.046875"></rect><text text-anchor="middle" x="393.1268004175673" y="315.5741310805267">DeclareFault</text><text text-anchor="middle" x="393.1268004175673" y="326.5897560805267">SubmitWindowPoSt (SP)</text><text text-anchor="middle" x="393.1268004175673" y="337.6053810805267">ProvingDeadline (SP)</text><text text-anchor="middle" x="393.1268004175673" y="348.6210060805267"></text></g><path d="M371.58,187.2938551160387L343.1033333333333,192.5782125966989C314.62666666666667,197.86257007735912,257.67333333333335,208.43128503867956,229.1966666666667,220.71564251933978C200.72000000000003,233,200.72000000000003,247,200.72000000000003,263.6666666666667C200.72000000000003,280.3333333333333,200.72000000000003,299.6666666666667,200.72000000000003,318.5833333333333C200.72000000000003,337.5,200.72000000000003,356,200.72000000000003,373.1666666666667C200.72000000000003,390.3333333333333,200.72000000000003,406.1666666666667,200.72000000000003,422.0833333333333C200.72000000000003,438,200.72000000000003,454,200.72000000000003,468.6666666666667C200.72000000000003,483.3333333333333,200.72000000000003,496.6666666666667,277.0808333333334,509.35181610181615C353.4416666666666,522.0369655369656,506.16333333333324,534.073931073931,582.5241666666665,540.0924138424139L658.8849999999999,546.1108966108966" id="edge5" class="transition" marker-end="url(#dependencyEnd)"></path><g class="stateLabel"><rect class="box" x="153.71218750000003" y="488.8888438752932" width="94.015625" height="30.03125"></rect><text text-anchor="middle" x="200.72000000000003" y="501.8966563752932">TerminateSectors</text><text text-anchor="middle" x="200.72000000000003" y="512.9122813752932">(TF)</text><text text-anchor="middle" x="200.72000000000003" y="523.9279063752932"></text></g><path d="M609.3149999999999,365.68167140770356L636.6658333333334,357.901392839753C664.0166666666665,350.12111427180236,718.7183333333332,334.5605571359012,765.7958333333332,319.1455083379581C812.8733333333333,303.73045954001515,852.3266666666665,288.46091908003024,872.0533333333332,280.8261488500378L891.7799999999999,273.1913786200454" id="edge6" class="transition" marker-end="url(#dependencyEnd)"></path><g class="stateLabel"><rect class="box" x="682.8959329094151" y="311.4705177825528" width="139.015625" height="20.015625"></rect><text text-anchor="middle" x="752.4037454094151" y="324.9783302825528">SubmittedWindowPoSt (FF)</text><text text-anchor="middle" x="752.4037454094151" y="336.9939552825528"></text></g><path d="M609.3149999999999,369.90344827586205L628.3149999999999,367.0862068965517C647.3149999999999,364.2689655172414,685.3149999999999,358.63448275862066,709.0649999999999,355.81724137931036C732.8149999999999,353,742.3149999999999,353,751.8149999999999,356.5833333333333C761.3149999999999,360.1666666666667,770.8149999999999,367.3333333333333,770.8149999999999,374.5C770.8149999999999,381.6666666666667,761.3149999999999,388.8333333333333,751.8149999999999,392.4166666666667C742.3149999999999,396,732.8149999999999,396,709.0649999999999,393.18275862068964C685.3149999999999,390.36551724137934,647.3149999999999,384.7310344827586,628.3149999999999,381.9137931034483L609.3149999999999,379.09655172413795" id="edge7" class="transition" marker-end="url(#dependencyEnd)"></path><g class="stateLabel"><rect class="box" x="725.3071874999999" y="361" width="110.015625" height="20"></rect><text text-anchor="middle" x="780.3149999999999" y="374.5">ProvingDeadline (FF)</text><text text-anchor="middle" x="780.3149999999999" y="386.5"></text></g><path d="M591.1946315789473,396L593.7905263157894,400.3333333333333C596.3864210526316,404.6666666666667,601.5782105263157,413.3333333333333,637.9891052631579,424.2409305088636C674.4,435.14852768439385,742.0300000000001,448.29705536878765,775.8449999999999,454.8713192109846L809.66,461.44558305318156" id="edge8" class="transition" marker-end="url(#dependencyEnd)"></path><g class="stateLabel"><rect class="box" x="631.831576195425" y="425.82288399390575" width="123.015625" height="19.015625"></rect><text text-anchor="middle" x="693.339388695425" y="438.83069649390575">DeclareFaultRecovered</text><text text-anchor="middle" x="693.339388695425" y="449.84632149390575"></text></g><path d="M547.3149999999999,380.397903190275L510.87083333333334,387.3315859918958C474.42666666666656,394.26526879351667,401.53833333333324,408.1326343967583,365.0941666666667,423.0663171983792C328.65,438,328.65,454,328.65000000000003,468.6666666666667C328.65,483.3333333333333,328.65,496.6666666666667,383.6891666666666,509.1582079654909C438.7283333333333,521.6497492643151,548.8066666666665,533.2994985286304,603.8458333333332,539.1243731607879L658.8849999999999,544.9492477929455" id="edge9" class="transition" marker-end="url(#dependencyEnd)"></path><g class="stateLabel"><rect class="box" x="281.82845518205676" y="491.6153181683557" width="115.015625" height="32.03125"></rect><text text-anchor="middle" x="339.33626768205676" y="505.1231306683557">EarlyExpiration (TF)</text><text text-anchor="middle" x="339.33626768205676" y="517.1387556683558">TerminateSectors (TF)</text><text text-anchor="middle" x="339.33626768205676" y="529.1543806683558"></text></g><path d="M879.8285416666666,448L884.9829513888889,443.6666666666667C890.1373611111111,439.3333333333333,900.4461805555555,430.6666666666667,905.6005902777778,418.4166666666667C910.7549999999998,406.1666666666667,910.7549999999998,390.3333333333333,910.755,373.1666666666667C910.7549999999998,356,910.7549999999998,337.5,912.0686853448275,322.1666666666667C913.3823706896551,306.8333333333333,916.0097413793102,294.6666666666667,917.3234267241378,288.5833333333333L918.6371120689654,282.5" id="edge10" class="transition" marker-end="url(#dependencyEnd)"></path><g class="stateLabel"><rect class="box" x="841.2471874999999" y="358.5232726336045" width="139.015625" height="20.015625"></rect><text text-anchor="middle" x="910.7549999999999" y="372.0310851336045">SubmittedWindowPoSt (FF)</text><text text-anchor="middle" x="910.7549999999999" y="384.0467101336045"></text></g><path d="M897.66,456.99787607350635L917.3991666666667,451.164896727922C937.1383333333333,445.3319173823376,976.6166666666667,433.6659586911688,928.5591666666666,420.47690627996536C880.5016666666666,407.2878538687621,744.9083333333333,392.5757077375242,677.1116666666666,385.2196346719052L609.3149999999999,377.8635616062863" id="edge11" class="transition" marker-end="url(#dependencyEnd)"></path><g class="stateLabel"><rect class="box" x="818.085778408165" y="388.07693991419853" width="112.015625" height="30.03125"></rect><text text-anchor="middle" x="874.093590908165" y="401.08475241419853">DeclareFault</text><text text-anchor="middle" x="874.093590908165" y="412.10037741419853">ProvingDeadline (SP)</text><text text-anchor="middle" x="874.093590908165" y="423.11600241419853"></text></g><path d="M853.66,492L853.66,495C853.66,498,853.66,504,835.5308333333334,511.7181820677538C817.4016666666666,519.4363641355076,781.1433333333333,528.8727282710153,763.0141666666665,533.590910338769L744.8849999999999,538.3090924065228" id="edge12" class="transition" marker-end="url(#dependencyEnd)"></path><g class="stateLabel"><rect class="box" x="750.4745517478798" y="508.37995961140666" width="115.015625" height="20.015625"></rect><text text-anchor="middle" x="807.9823642478798" y="521.8877721114067">TerminateSectors (TF)</text><text text-anchor="middle" x="807.9823642478798" y="533.9033971114067"></text></g><path d="M954.7799999999999,253.18196860089273L963.9677777777778,250.90164050074395C973.1555555555555,248.62131240059514,991.5311111111109,244.0606562002976,1003.0158333333333,241.7803281001488C1014.5005555555554,239.5,1019.0944444444443,239.5,1023.6883333333332,243.08333333333334C1028.2822222222221,246.66666666666666,1032.876111111111,253.83333333333334,1032.876111111111,261C1032.876111111111,268.1666666666667,1028.2822222222221,275.3333333333333,1023.6883333333334,278.9166666666667C1019.0944444444443,282.5,1014.5005555555554,282.5,1003.0158333333333,280.2196718998512C991.5311111111109,277.9393437997024,973.1555555555555,273.3786875994048,963.9677777777775,271.09835949925605L954.7799999999999,268.81803139910727" id="edge13" class="transition" marker-end="url(#dependencyEnd)"></path><g class="stateLabel"><rect class="box" x="977.9621874999996" y="247.99999999999994" width="119.015625" height="19"></rect><text text-anchor="middle" x="1037.4699999999996" y="260.99999999999994">SubmittedWindowPoSt</text><text text-anchor="middle" x="1037.4699999999996" y="271.99999999999994"></text></g><path d="M891.7799999999999,265.8958919527293L834.8349999999999,274.7465766272744C777.8899999999999,283.5972613018195,663.9999999999999,301.29863065090973,609.9347897897896,315.8159819921215C555.8695795795794,330.3333333333333,561.629159159159,341.6666666666667,564.5089489489488,347.3333333333333L567.3887387387387,353" id="edge14" class="transition" marker-end="url(#dependencyEnd)"></path><g class="stateLabel"><rect class="box" x="639.0941120695743" y="271.3531961387295" width="126.015625" height="41.046875"></rect><text text-anchor="middle" x="702.1019245695743" y="284.3610086387295">DeclareFault</text><text text-anchor="middle" x="702.1019245695743" y="295.3766336387295">SubmitWindowPoSt (SP)</text><text text-anchor="middle" x="702.1019245695743" y="306.3922586387295">ProvingDeadline (SP)</text><text text-anchor="middle" x="702.1019245695743" y="317.4078836387295"></text></g><path d="M954.7799999999999,267.27781118460615L998.0341666666667,275.8981759871718C1041.2883333333332,284.5185407897374,1127.7966666666664,301.75927039486874,1171.050833333333,319.62963519743437C1214.3049999999998,337.5,1214.3049999999998,356,1214.305,373.1666666666667C1214.3049999999998,390.3333333333333,1214.3049999999998,406.1666666666667,1214.305,422.0833333333333C1214.3049999999998,438,1214.3049999999998,454,1214.305,468.6666666666667C1214.3049999999998,483.3333333333333,1214.3049999999998,496.6666666666667,1136.0683333333334,509.3642227079349C1057.8316666666665,522.0617787492032,901.3583333333332,534.1235574984063,823.1216666666666,540.1544468730078L744.8849999999999,546.1853362476094" id="edge15" class="transition" marker-end="url(#dependencyEnd)"></path><g class="stateLabel"><rect class="box" x="1149.2277460107575" y="491.0678669379124" width="115.015625" height="32.03125"></rect><text text-anchor="middle" x="1206.7355585107575" y="504.5756794379124">CronExpiration</text><text text-anchor="middle" x="1206.7355585107575" y="516.5913044379124">TerminateSectors (TF)</text><text text-anchor="middle" x="1206.7355585107575" y="528.6069294379124"></text></g><path d="M701.8849999999999,571L701.8849999999999,574C701.8849999999999,577,701.8849999999999,583,665.0841666666665,591.6937111167689C628.2833333333332,600.3874222335377,554.6816666666665,611.7748444670754,517.8808333333333,617.4685555838442L481.0799999999999,623.162266700613" id="edge16" class="transition" marker-end="url(#dependencyEnd)"></path><g class="stateLabel"><rect class="box" x="555.8688656278762" y="591.1972411180211" width="89.015625" height="20.015625"></rect><text text-anchor="middle" x="600.3766781278762" y="604.7050536180211">CompactSectors</text><text text-anchor="middle" x="600.3766781278762" y="616.7206786180211"></text></g></svg>